<svg width="83" height="74" viewBox="0 0 83 74" fill="none" xmlns="http://www.w3.org/2000/svg">
<rect x="4.5" width="74" height="74" rx="37" fill="#1DB954"/>
<path fill-rule="evenodd" clip-rule="evenodd" d="M40.2209 14.5222C40.9733 13.9371 42.0267 13.9371 42.779 14.5222L61.529 29.1055C62.0365 29.5002 62.3333 30.1071 62.3333 30.75V53.6667C62.3333 55.3243 61.6748 56.914 60.5027 58.0861C59.3306 59.2582 57.7409 59.9167 56.0833 59.9167H26.9167C25.2591 59.9167 23.6693 59.2582 22.4972 58.0861C21.3251 56.914 20.6667 55.3243 20.6667 53.6667V30.75C20.6667 30.1071 20.9635 29.5002 21.4709 29.1055L40.2209 14.5222ZM24.8333 31.7689V53.6667C24.8333 54.2192 25.0528 54.7491 25.4435 55.1398C25.8342 55.5305 26.3641 55.75 26.9167 55.75H56.0833C56.6359 55.75 57.1658 55.5305 57.5565 55.1398C57.9472 54.7491 58.1667 54.2192 58.1667 53.6667V31.7689L41.5 18.806L24.8333 31.7689Z" fill="#FDFDFD" fill-opacity="0.992157"/>
<path fill-rule="evenodd" clip-rule="evenodd" d="M33.1667 37C33.1667 35.8494 34.0994 34.9167 35.25 34.9167H47.75C48.9006 34.9167 49.8333 35.8494 49.8333 37V57.8333C49.8333 58.9839 48.9006 59.9167 47.75 59.9167C46.5994 59.9167 45.6667 58.9839 45.6667 57.8333V39.0833H37.3333V57.8333C37.3333 58.9839 36.4006 59.9167 35.25 59.9167C34.0994 59.9167 33.1667 58.9839 33.1667 57.8333V37Z" fill="#FDFDFD" fill-opacity="0.992157"/>
</svg>
