<svg width="50" height="50" viewBox="0 0 50 50" fill="none" xmlns="http://www.w3.org/2000/svg">
<path fill-rule="evenodd" clip-rule="evenodd" d="M22.5 5C12.835 5 5 12.835 5 22.5C5 32.165 12.835 40 22.5 40C32.165 40 40 32.165 40 22.5C40 12.835 32.165 5 22.5 5ZM0 22.5C0 10.0736 10.0736 0 22.5 0C34.9264 0 45 10.0736 45 22.5C45 34.9264 34.9264 45 22.5 45C10.0736 45 0 34.9264 0 22.5Z" fill="#FDFDFD" fill-opacity="0.992157"/>
<path fill-rule="evenodd" clip-rule="evenodd" d="M34.8572 34.8572C35.8335 33.8809 37.4165 33.8809 38.3928 34.8572L49.2678 45.7322C50.2441 46.7085 50.2441 48.2915 49.2678 49.2678C48.2915 50.2441 46.7085 50.2441 45.7322 49.2678L34.8572 38.3928C33.8809 37.4165 33.8809 35.8335 34.8572 34.8572Z" fill="#FDFDFD" fill-opacity="0.992157"/>
</svg>
