<svg width="83" height="74" viewBox="0 0 83 74" fill="none" xmlns="http://www.w3.org/2000/svg">
<rect x="4.5" width="74" height="74" rx="37" fill="#1DB954"/>
<path fill-rule="evenodd" clip-rule="evenodd" d="M25.801 44.2176C27.7545 42.2641 30.404 41.1667 33.1667 41.1667H49.8333C52.596 41.1667 55.2455 42.2641 57.199 44.2176C59.1525 46.1711 60.25 48.8206 60.25 51.5833V55.75C60.25 56.9006 59.3173 57.8333 58.1667 57.8333C57.0161 57.8333 56.0833 56.9006 56.0833 55.75V51.5833C56.0833 49.9257 55.4249 48.336 54.2527 47.1639C53.0806 45.9918 51.4909 45.3333 49.8333 45.3333H33.1667C31.5091 45.3333 29.9194 45.9918 28.7472 47.1639C27.5751 48.336 26.9167 49.9257 26.9167 51.5833V55.75C26.9167 56.9006 25.9839 57.8333 24.8333 57.8333C23.6827 57.8333 22.75 56.9006 22.75 55.75V51.5833C22.75 48.8207 23.8475 46.1711 25.801 44.2176Z" fill="#FDFDFD" fill-opacity="0.992157"/>
<path fill-rule="evenodd" clip-rule="evenodd" d="M41.5 20.3333C38.0482 20.3333 35.25 23.1315 35.25 26.5833C35.25 30.0351 38.0482 32.8333 41.5 32.8333C44.9518 32.8333 47.75 30.0351 47.75 26.5833C47.75 23.1315 44.9518 20.3333 41.5 20.3333ZM31.0833 26.5833C31.0833 20.8304 35.747 16.1667 41.5 16.1667C47.2529 16.1667 51.9166 20.8304 51.9166 26.5833C51.9166 32.3363 47.2529 37 41.5 37C35.747 37 31.0833 32.3363 31.0833 26.5833Z" fill="#FDFDFD" fill-opacity="0.992157"/>
</svg>
